<?xml version="1.0"?>
<svg xmlns="http://www.w3.org/2000/svg" xmlns:xlink="http://www.w3.org/1999/xlink" xmlns:svgjs="http://svgjs.com/svgjs" version="1.1" width="512" height="512" x="0" y="0" viewBox="0 0 32 32" style="enable-background:new 0 0 512 512" xml:space="preserve" class=""><circle r="16" cx="16" cy="16" fill="#6c4796" shape="circle"/><g transform="matrix(0.65,0,0,0.65,5.600125420093537,5.600085449218751)"><g xmlns="http://www.w3.org/2000/svg" id="megaphone"><path d="m14.4902344 23.5600586-2.8300781 2.8198242c-1.1699219 1.1699219-3.0800781 1.1699219-4.25 0l-2.8300781-2.8300781c-1.1601563-1.159668-1.1601563-3.0698242 0-4.2397461l2.8300781-2.8300781zm13.4296875-7.7900391-12.7299805-12.7202148c-.2197266-.2299805-.5400391-.3398438-.8500977-.2900391-.3198242.050293-.5898437.2402344-.739746.5200196l-5.7299805 10.8300781 9.0097656 9.0102539 10.7998047-5.7602539c.2802734-.1396484.4707031-.4199219.5205078-.7299805.0498047-.3198242-.0605469-.6298828-.2802734-.8598633zm-21.9199219 12.0200196-2.8300781-2.8300781c-.3999023-.3999023-.7099609-.8398438-.9399414-1.3198242-.5 1.3999023-.1801758 3.0297852.9399414 4.1499023.7602539.7597656 1.7602539 1.1801757 2.8300781 1.1801757.4599609 0 .9101563-.0800781 1.3300781-.2299805-.4902343-.2304687-.9399414-.5502929-1.3300781-.9501952zm11.6699219-1.0600586-1.7597656-1.7597656-2.840332 2.8295898c-.2397461.2402344-.5.4501953-.7797852.6303711l1.8398438 1.8398438c.4702148.4702148 1.1000976.7299804 1.7700194.7299804s1.300293-.2597656 1.7700195-.7299805c.9697266-.9799804.9697266-2.5600586.0000001-3.540039zm3.3300781-22.7294922v-2c0-.5522461-.4472656-1-1-1s-1 .4477539-1 1v2c0 .5522461.4472656 1 1 1s1-.4477539 1-1zm9 6.9995117c0-.5522461-.4472656-1-1-1h-2c-.5527344 0-1 .4477539-1 1s.4472656 1 1 1h2c.5527344 0 1-.4477539 1-1zm-5.2929687-3.2929687 2-2c.390625-.390625.390625-1.0234375 0-1.4140625s-1.0234375-.390625-1.4140625 0l-2 2c-.390625.390625-.390625 1.0234375 0 1.4140625.1953125.1953125.4511718.2929687.7070312.2929687s.5117188-.0976562.7070313-.2929687z" fill="#ffffff" data-original="#000000" class=""/></g></g></svg>
