<?xml version="1.0"?>
<svg xmlns="http://www.w3.org/2000/svg" xmlns:xlink="http://www.w3.org/1999/xlink" xmlns:svgjs="http://svgjs.com/svgjs" version="1.1" width="512" height="512" x="0" y="0" viewBox="0 0 64 64" style="enable-background:new 0 0 512 512" xml:space="preserve" class=""><circle r="32" cx="32" cy="32" fill="#6c4796" shape="circle"/><g transform="matrix(0.7,0,0,0.7,9.600000000000001,9.600000000000001)"><path xmlns="http://www.w3.org/2000/svg" d="m18 64h28a6 6 0 0 0 6-6v-52a6 6 0 0 0 -6-6h-28a6 6 0 0 0 -6 6v52a6 6 0 0 0 6 6zm8.08-60h11.84v1h-11.84zm-10.08 2a2 2 0 0 1 2-2h4.08v3a2 2 0 0 0 2 2h15.84a2 2 0 0 0 2-2v-3h4.08a2 2 0 0 1 2 2v52a2 2 0 0 1 -2 2h-28a2 2 0 0 1 -2-2z" fill="#ffffff" data-original="#000000" class=""/></g></svg>
