<svg xmlns="http://www.w3.org/2000/svg" xmlns:xlink="http://www.w3.org/1999/xlink" xmlns:svgjs="http://svgjs.com/svgjs" version="1.1" width="987.69" height="290" x="0" y="0" viewBox="0 0 205 60" xml:space="preserve" class="" ><g xmlns="http://www.w3.org/2000/svg" fill="#feffff" class="icon-text-wrapper icon-svg-group iconsvg" id="g298" style="fill:#ffffff" transform="translate(-66.159251,-93.969555)">
    <g class="iconsvg-imagesvg icon_container" transform="translate(67.825,95)" id="g294" style="fill:#ffffff">
      <svg viewBox="0 0 60 60" width="60" height="60" class="image-svg-svg bn" style="overflow:visible;fill:#ffffff" version="1.1" id="svg287">
        <g mask="url(#a)" id="g276" style="fill:#ffffff">
          <svg viewBox="0 0 100 100" style="overflow:visible;fill:#ffffff" width="60" height="60" version="1.1" id="svg268">
            <rect x="277" y="3121" width="100" height="100" rx="10" transform="translate(-277,-3121)" fill-rule="evenodd" id="rect266" style="fill:#ffffff"/>
          </svg>
          <g filter="url(#b)" id="g274" style="fill:#ffffff">
            <svg viewBox="0 0 74.592 68.184" width="53.959999" height="53.959999" x="3.02" y="3.02" class="image-svg-letter" version="1.1" id="svg272" style="fill:#ffffff">
              <path d="m 16.344,8.856 v 16.27 q 0,7.78 -5.62,8.93 2.6,0.22 4.11,2.38 1.51,2.16 1.51,5.9 v 16.99 q 0,1.8 1.94,1.8 h 2.38 v 7.06 h -5.76 q -8.86,0 -8.86,-8.43 v -15.62 q 0,-3.38 -1.26,-4.97 -1.26,-1.58 -4.06,-1.58 h -0.72 v -7.06 h 0.72 q 2.8,0 4.06,-1.58 1.26,-1.59 1.26,-5.04 V 8.426 q 0,-8.43 8.86,-8.43 h 5.76 v 7.06 h -2.38 q -1.94,0 -1.94,1.8 z m 24.19,38.52 v -8.28 q 0,-0.94 -0.43,-1.33 -0.43,-0.4 -1.51,-0.4 h -6.34 q -8.49,0 -8.49,-8.06 v -10.44 q 0,-7.92 9.07,-7.92 h 8.78 q 9.07,0 9.07,7.92 v 5.97 h -10.29 v -4.53 q 0,-1.8 -1.95,-1.8 h -2.44 q -1.95,0 -1.95,1.8 v 8.06 q 0,0.94 0.43,1.33 0.44,0.4 1.52,0.4 h 6.19 q 4.61,0 6.62,1.98 2.02,1.98 2.02,5.87 v 10.8 q 0,7.99 -9.07,7.99 h -8.72 q -9.14,0 -9.14,-7.99 v -5.91 h 10.3 v 4.54 q 0,1.8 1.94,1.8 h 2.45 q 1.94,0 1.94,-1.8 z m 17.71,-22.25 V 8.856 q 0,-1.8 -2.01,-1.8 h -2.38 v -7.06 h 5.76 q 8.93,0 8.93,8.43 v 15.48 q 0,3.53 1.22,5.07 1.23,1.55 4.04,1.55 h 0.79 v 7.06 h -0.79 q -2.81,0 -4.04,1.58 -1.22,1.59 -1.22,4.97 v 15.62 q 0,8.43 -8.93,8.43 h -5.76 v -7.06 h 2.38 q 2.01,0 2.01,-1.8 v -16.99 q 0,-3.74 1.48,-5.9 1.48,-2.16 4.07,-2.38 -5.55,-1.08 -5.55,-8.93 z" id="path270" style="fill:#ffffff"/>
            </svg>
          </g>
        </g>
        <mask id="a">
          <svg viewBox="0 0 100 100" style="overflow:visible" width="60" height="60" fill="#ffffff" version="1.1" id="svg280">
            <rect x="277" y="3121" width="100" height="100" rx="10" transform="translate(-277,-3121)" fill-rule="evenodd" id="rect278"/>
          </svg>
          <svg viewBox="0 0 74.592 68.184" width="53.959999" height="53.959999" x="3.02" y="3.02" class="image-svg-letter" fill="#000000" version="1.1" id="svg284">
            <path d="m 16.344,8.856 v 16.27 q 0,7.78 -5.62,8.93 2.6,0.22 4.11,2.38 1.51,2.16 1.51,5.9 v 16.99 q 0,1.8 1.94,1.8 h 2.38 v 7.06 h -5.76 q -8.86,0 -8.86,-8.43 v -15.62 q 0,-3.38 -1.26,-4.97 -1.26,-1.58 -4.06,-1.58 h -0.72 v -7.06 h 0.72 q 2.8,0 4.06,-1.58 1.26,-1.59 1.26,-5.04 V 8.426 q 0,-8.43 8.86,-8.43 h 5.76 v 7.06 h -2.38 q -1.94,0 -1.94,1.8 z m 24.19,38.52 v -8.28 q 0,-0.94 -0.43,-1.33 -0.43,-0.4 -1.51,-0.4 h -6.34 q -8.49,0 -8.49,-8.06 v -10.44 q 0,-7.92 9.07,-7.92 h 8.78 q 9.07,0 9.07,7.92 v 5.97 h -10.29 v -4.53 q 0,-1.8 -1.95,-1.8 h -2.44 q -1.95,0 -1.95,1.8 v 8.06 q 0,0.94 0.43,1.33 0.44,0.4 1.52,0.4 h 6.19 q 4.61,0 6.62,1.98 2.02,1.98 2.02,5.87 v 10.8 q 0,7.99 -9.07,7.99 h -8.72 q -9.14,0 -9.14,-7.99 v -5.91 h 10.3 v 4.54 q 0,1.8 1.94,1.8 h 2.45 q 1.94,0 1.94,-1.8 z m 17.71,-22.25 V 8.856 q 0,-1.8 -2.01,-1.8 h -2.38 v -7.06 h 5.76 q 8.93,0 8.93,8.43 v 15.48 q 0,3.53 1.22,5.07 1.23,1.55 4.04,1.55 h 0.79 v 7.06 h -0.79 q -2.81,0 -4.04,1.58 -1.22,1.59 -1.22,4.97 v 15.62 q 0,8.43 -8.93,8.43 h -5.76 v -7.06 h 2.38 q 2.01,0 2.01,-1.8 v -16.99 q 0,-3.74 1.48,-5.9 1.48,-2.16 4.07,-2.38 -5.55,-1.08 -5.55,-8.93 z" id="path282"/>
          </svg>
        </mask>
      </svg>
      <defs id="defs292">
        <filter id="b" x="0" y="0" width="1" height="1">
          <feColorMatrix values="0 0 0 0 0.9921875 0 0 0 0 0.99609375 0 0 0 0 0.99609375 0 0 0 1 0" class="icon-fecolormatrix" id="feColorMatrix289"/>
        </filter>
      </defs>
    </g>
    <path d="m 147.895,117.61 -11.2,6.48 11.2,6.47 v 3.33 l -14.07,-8.12 v -3.4 l 14.07,-8.08 z m 24.67,0.77 v 0.28 h -2.9 v -0.28 q 0,-0.56 -0.41,-0.96 -0.4,-0.4 -0.96,-0.4 h -12.18 q -0.56,0 -0.96,0.4 -0.4,0.4 -0.4,0.96 v 3.12 q 0,0.56 0.4,0.96 0.4,0.4 0.96,0.4 h 12.18 q 1.79,0 3.03,1.25 1.24,1.24 1.24,2.99 v 3.11 q 0,1.75 -1.24,3 -1.24,1.24 -3.03,1.24 h -12.18 q -1.75,0 -2.99,-1.24 -1.24,-1.25 -1.24,-3 v -0.28 h 2.87 v 0.28 q 0,0.56 0.4,0.97 0.4,0.4 0.96,0.4 h 12.18 q 0.56,0 0.96,-0.4 0.41,-0.41 0.41,-0.97 v -3.11 q 0,-0.56 -0.41,-0.96 -0.4,-0.41 -0.96,-0.41 h -12.18 q -1.75,0 -2.99,-1.24 -1.24,-1.24 -1.24,-2.99 v -3.12 q 0,-1.75 1.24,-2.99 1.24,-1.24 2.99,-1.24 h 12.18 q 1.79,0 3.03,1.24 1.24,1.24 1.24,2.99 z m 3.54,-4.23 h 16.45 q 1.75,0 2.99,1.24 1.24,1.24 1.24,2.99 v 11.83 q 0,1.75 -1.24,3 -1.24,1.24 -2.99,1.24 h -13.58 v 8.05 h -2.87 z m 17.81,16.06 v -11.83 q 0,-0.56 -0.4,-0.96 -0.4,-0.4 -0.96,-0.4 h -12.18 q -0.56,0 -0.98,0.4 -0.42,0.4 -0.42,0.96 v 11.83 q 0,0.56 0.42,0.97 0.42,0.4 0.98,0.4 h 12.18 q 0.56,0 0.96,-0.4 0.4,-0.41 0.4,-0.97 z m 25.66,-15.99 v 24.01 q 0,1.79 -1.23,3.03 -1.22,1.24 -3.01,1.24 h -12.67 v -2.9 h 12.67 q 0.56,0 0.96,-0.41 0.41,-0.4 0.41,-0.96 v -3.78 h -13.55 q -1.75,0 -2.99,-1.24 -1.24,-1.25 -1.24,-3 v -15.99 h 2.87 v 15.99 q 0,0.56 0.4,0.97 0.4,0.4 0.96,0.4 h 12.18 q 0.56,0 0.96,-0.4 0.41,-0.41 0.41,-0.97 v -15.99 z m 4.02,15.99 V 107.5 h 2.87 v 22.71 q 0,0.56 0.4,0.97 0.41,0.4 0.97,0.4 h 3.42 v 2.87 h -3.42 q -1.75,0 -3,-1.24 -1.24,-1.25 -1.24,-3 z m 14.24,-16.06 h 12.18 q 1.79,0 3.03,1.24 1.24,1.24 1.24,2.99 v 7.35 h -17.81 v 4.48 q 0,0.56 0.4,0.97 0.4,0.4 0.96,0.4 h 16.45 v 2.87 h -16.45 q -1.75,0 -2.99,-1.24 -1.24,-1.25 -1.24,-3 v -11.83 q 0,-1.75 1.24,-2.99 1.24,-1.24 2.99,-1.24 z m -1.36,4.23 v 4.48 h 14.91 v -4.48 q 0,-0.56 -0.4,-0.96 -0.41,-0.4 -0.97,-0.4 h -12.18 q -0.56,0 -0.96,0.4 -0.4,0.4 -0.4,0.96 z m 35.7,7.46 -14.07,8.12 v -3.33 l 11.2,-6.47 -11.2,-6.48 v -3.32 l 14.07,8.08 z" data-gra="path-name" class="tp-name iconsvg-namesvg" id="path296" style="fill:#ffffff"/>
  </g></svg>