<?xml version="1.0"?>
<svg xmlns="http://www.w3.org/2000/svg" xmlns:xlink="http://www.w3.org/1999/xlink" xmlns:svgjs="http://svgjs.com/svgjs" version="1.1" width="512" height="512" x="0" y="0" viewBox="0 0 512 512" style="enable-background:new 0 0 512 512" xml:space="preserve" class=""><circle r="256" cx="256" cy="256" fill="#071773" shape="circle"/><g transform="matrix(0.65,0,0,0.65,89.6,89.6)"><path xmlns="http://www.w3.org/2000/svg" d="m405 163h-298c-24.813 0-45 20.187-45 45v175c0 71.13 57.869 129 129 129h130c71.13 0 129-57.869 129-129v-175c0-24.813-20.187-45-45-45zm-236.542 225.917c-.083 0-.166 0-.249 0-25.668-.115-45.025-17.029-45.025-39.344 0-8.284 6.716-15 15-15s15 6.716 15 15c0 6.398 8.865 9.316 15.159 9.344h.126c4.876 0 12.905-1.267 12.979-9.587.047-5.239-2.601-7.675-20.218-13.719-.544-.186-1.08-.376-1.623-.563-.412-.107-.823-.232-1.232-.377-11.807-4.17-36.375-12.848-36.125-40.853.205-22.816 18.269-39.318 42.99-39.318h.249c25.669.115 45.025 17.029 45.025 39.344 0 8.284-6.716 15-15 15s-15-6.716-15-15c0-6.398-8.865-9.316-15.159-9.345-4.863.002-13.031 1.195-13.106 9.587-.035 3.901.941 6.694 14.068 11.555.126.041.253.068.379.113 1.41.5 2.838.989 4.267 1.479 8.519 2.922 17.327 5.944 24.871 11.439 10.327 7.523 15.726 18.217 15.613 30.924-.203 22.819-18.267 39.32-42.989 39.321zm94.93 0c-.083 0-.166 0-.249 0-25.669-.115-45.025-17.029-45.025-39.344 0-8.284 6.716-15 15-15s15 6.716 15 15c0 6.398 8.865 9.316 15.16 9.344h.126c4.876 0 12.905-1.267 12.979-9.587.047-5.239-2.601-7.676-20.219-13.719-.544-.187-1.082-.376-1.625-.563-.411-.107-.821-.232-1.229-.376-11.807-4.17-36.375-12.848-36.125-40.853.205-22.816 18.269-39.318 42.99-39.318h.249c25.669.115 45.025 17.029 45.025 39.344 0 8.284-6.716 15-15 15s-15-6.716-15-15c0-6.398-8.865-9.316-15.159-9.345-4.864.002-13.031 1.195-13.106 9.587-.035 3.902.941 6.694 14.066 11.555.126.041.254.069.38.113 1.41.5 2.837.989 4.267 1.479 8.519 2.922 17.328 5.943 24.872 11.439 10.328 7.523 15.727 18.217 15.613 30.925-.205 22.817-18.269 39.318-42.99 39.319zm111.362-.004h-43c-8.284 0-15-6.716-15-15v-103.991c0-8.284 6.716-15 15-15s15 6.716 15 15v88.991h28c8.284 0 15 6.716 15 15s-6.716 15-15 15z" fill="#ffffff" data-original="#000000"/><path xmlns="http://www.w3.org/2000/svg" d="m156 130c0-55.14 44.859-100 100-100s100 44.859 100 100v3h30v-3c0-71.683-58.318-130-130-130s-130 58.317-130 130v3h30z" fill="#ffffff" data-original="#000000"/></g></svg>
